<svg width="89" height="89" viewBox="0 0 89 89" fill="none" xmlns="http://www.w3.org/2000/svg">
<path d="M85.4454 0H3.55459C1.59145 0 0 1.59145 0 3.55459V85.4454C0 87.4085 1.59145 89 3.55459 89H85.4454C87.4085 89 89 87.4085 89 85.4454V3.55459C89 1.59145 87.4085 0 85.4454 0Z" fill="#5C2682"/>
<path d="M17.194 35.8802V39.1682H24.4672V42.1958H17.194V48.097H13.8403V32.8535H25.4464V35.8802H17.194Z" fill="white"/>
<path d="M40.2977 46.7682C39.8705 47.106 39.4067 47.3945 38.915 47.6285C38.3909 47.8747 37.8389 48.0562 37.271 48.169C36.6112 48.2987 35.9399 48.3608 35.2676 48.3546C34.199 48.3643 33.1395 48.1568 32.1535 47.7447C31.2246 47.3578 30.381 46.7919 29.6708 46.0791C28.9669 45.3641 28.4118 44.5166 28.0377 43.5857C27.6424 42.6104 27.4425 41.5671 27.4494 40.5148V40.4716C27.4415 39.4218 27.6414 38.3809 28.0377 37.4088C28.4168 36.4775 28.9712 35.6277 29.6708 34.9055C30.3827 34.1763 31.2345 33.5984 32.1751 33.2065C33.1978 32.785 34.2957 32.576 35.4018 32.5922C36.0554 32.5873 36.7079 32.6455 37.3502 32.766C37.8987 32.8711 38.435 33.0316 38.951 33.2453C39.4195 33.443 39.865 33.6913 40.2797 33.9857C40.6827 34.2737 41.0614 34.5942 41.412 34.9442L39.2753 37.4043C38.7296 36.9027 38.1177 36.4783 37.4565 36.1432C36.808 35.8317 36.0959 35.6753 35.3766 35.6865C34.7653 35.6808 34.16 35.8071 33.602 36.0567C33.0676 36.2961 32.5892 36.6446 32.1976 37.08C31.8011 37.523 31.491 38.0363 31.2833 38.5934C31.0626 39.1817 30.9518 39.8054 30.9563 40.4337V40.477C30.9525 41.1087 31.0633 41.7359 31.2833 42.3281C31.4878 42.887 31.7931 43.4036 32.1841 43.8523C32.5829 44.3035 33.0743 44.6634 33.6247 44.9076C34.1751 45.1518 34.7717 45.2746 35.3739 45.2675C36.2453 45.2675 36.9821 45.1077 37.5845 44.7883C38.2375 44.4329 38.8413 43.9938 39.3807 43.4821L41.5147 45.6377C41.1382 46.0448 40.7314 46.4227 40.2977 46.7682Z" fill="white"/>
<path d="M56.1288 48.097V38.1449L51.8383 44.6559H51.7482L47.5018 38.2106V48.097H44.1958V32.8535H47.8098L51.8166 39.2997L55.8235 32.8535H59.4384V48.097H56.1288Z" fill="white"/>
<path d="M75.6292 45.745C75.3595 46.2693 74.9636 46.7182 74.477 47.0512C73.9294 47.4204 73.3188 47.6863 72.6754 47.8358C71.9082 48.0173 71.1217 48.1051 70.3333 48.097H63.0962V32.8535H70.1612C71.7256 32.8535 72.9535 33.2093 73.8447 33.921C74.7359 34.6326 75.1818 35.5908 75.1824 36.7955V36.8432C75.1886 37.234 75.1335 37.6234 75.0193 37.9971C74.9178 38.3161 74.7723 38.6193 74.5869 38.8979C74.4105 39.162 74.1983 39.4003 73.9564 39.606C73.7206 39.808 73.4632 39.9832 73.1889 40.1285C74.0699 40.463 74.7635 40.9167 75.2697 41.4896C75.776 42.0625 76.0288 42.8558 76.0282 43.8695V43.9128C76.0437 44.5466 75.9068 45.175 75.6292 45.745ZM71.8719 37.3612C71.8719 36.8531 71.6833 36.4649 71.3062 36.1964C70.929 35.928 70.3846 35.7938 69.673 35.7938H66.3625V39.016H69.4523C70.1928 39.016 70.7807 38.8889 71.2161 38.6349C71.6515 38.3809 71.8692 37.9707 71.8692 37.4044L71.8719 37.3612ZM72.7213 43.4587C72.7292 43.2243 72.6798 42.9915 72.5772 42.7805C72.4747 42.5695 72.3223 42.3868 72.1331 42.2481C71.741 41.9508 71.1104 41.8007 70.2414 41.7977H66.3679V45.1514H70.3531C71.0936 45.1514 71.6743 45.0172 72.0953 44.7487C72.5163 44.4803 72.7265 44.0629 72.7259 43.4966L72.7213 43.4587Z" fill="white"/>
<path d="M75.778 57.8645V65.3286H13.5068V61.4029C13.5067 60.9382 13.5982 60.478 13.7759 60.0487C13.9537 59.6193 14.2143 59.2292 14.5429 58.9006C14.8715 58.572 15.2616 58.3114 15.691 58.1336C16.1203 57.9558 16.5805 57.8644 17.0452 57.8645H75.778Z" fill="#FAB613"/>
<path d="M13.5068 67.7454H75.778V75.2095H17.0452C16.5804 75.2096 16.1202 75.1181 15.6908 74.9403C15.2614 74.7624 14.8712 74.5017 14.5426 74.173C14.214 73.8444 13.9534 73.4541 13.7757 73.0247C13.598 72.5952 13.5066 72.135 13.5068 71.6702V67.7454Z" fill="#FAB613"/>
</svg>
