<svg width="98" height="98" viewBox="0 0 98 98" fill="none" xmlns="http://www.w3.org/2000/svg">
<rect width="98" height="98" rx="15" fill="#3A0545" fill-opacity="0.11"/>
<path d="M71.6889 79.9999H25.1879C24.5318 79.9999 24 79.468 24 78.812V21.1879C24 20.5318 24.5319 20 25.1879 20H71.6889C72.345 20 72.8768 20.5319 72.8768 21.1879V78.812C72.8768 79.468 72.3449 79.9999 71.6889 79.9999Z" fill="#ECF4FF"/>
<path d="M71.6889 20H68.4819C69.1381 20 69.6699 20.5318 69.6699 21.1879V78.812C69.6699 79.4681 69.138 79.9999 68.4819 79.9999H71.6889C72.345 79.9999 72.8768 79.468 72.8768 78.812V21.1879C72.8768 20.5318 72.3449 20 71.6889 20Z" fill="#DDEAFB"/>
<path d="M64.6176 27.9224H51.7735C51.1646 27.9224 50.6714 27.429 50.6714 26.8203C50.6714 26.2115 51.1648 25.7183 51.7735 25.7183H64.6176C65.2264 25.7183 65.7196 26.2117 65.7196 26.8203C65.7196 27.429 65.2264 27.9224 64.6176 27.9224Z" fill="#77959E"/>
<path d="M64.617 33.3007H47.3643C46.7556 33.3007 46.2622 32.8073 46.2622 32.1986C46.2622 31.5898 46.7556 31.0966 47.3643 31.0966H64.617C65.2258 31.0966 65.719 31.59 65.719 32.1986C65.719 32.8073 65.2258 33.3007 64.617 33.3007Z" fill="#77959E"/>
<path d="M64.617 38.6789H47.3643C46.7556 38.6789 46.2622 38.1855 46.2622 37.5769C46.2622 36.9681 46.7556 36.4748 47.3643 36.4748H64.617C65.2258 36.4748 65.719 36.9682 65.719 37.5769C65.719 38.1855 65.2258 38.6789 64.617 38.6789Z" fill="#77959E"/>
<path d="M37.4156 73.2622H30.545C30.0989 73.2622 29.7373 72.9006 29.7373 72.4546V61.924C29.7373 61.4779 30.0989 61.1163 30.545 61.1163H37.4156C37.8616 61.1163 38.2232 61.4779 38.2232 61.924V72.4546C38.2232 72.9006 37.8616 73.2622 37.4156 73.2622Z" fill="#48C8EF"/>
<path d="M37.4157 61.1154H34.8491C35.2952 61.1154 35.6568 61.477 35.6568 61.923V72.4536C35.6568 72.8996 35.2952 73.2612 34.8491 73.2612H37.4157C37.8618 73.2612 38.2234 72.8996 38.2234 72.4536V61.923C38.2234 61.477 37.8618 61.1154 37.4157 61.1154Z" fill="#48C8EF"/>
<path d="M51.8741 73.2614H45.0035C44.5574 73.2614 44.1958 72.8998 44.1958 72.4538V58.9842C44.1958 58.5381 44.5574 58.1765 45.0035 58.1765H51.8741C52.3201 58.1765 52.6817 58.5381 52.6817 58.9842V72.4538C52.6817 72.8998 52.3201 73.2614 51.8741 73.2614Z" fill="#ECCE93"/>
<path d="M51.8742 58.1765H49.3076C49.7537 58.1765 50.1153 58.5381 50.1153 58.9842V72.4538C50.1153 72.8998 49.7537 73.2614 49.3076 73.2614H51.8742C52.3203 73.2614 52.6819 72.8998 52.6819 72.4538V58.9842C52.6819 58.538 52.3203 58.1765 51.8742 58.1765Z" fill="#ECCE93"/>
<path d="M66.3321 73.2614H59.4615C59.0154 73.2614 58.6538 72.8998 58.6538 72.4537V53.1062C58.6538 52.6601 59.0154 52.2985 59.4615 52.2985H66.3321C66.7781 52.2985 67.1397 52.6601 67.1397 53.1062V72.4537C67.1397 72.8998 66.7781 73.2614 66.3321 73.2614Z" fill="#E76E54"/>
<path d="M66.3317 52.2984H63.7651C64.2112 52.2984 64.5728 52.66 64.5728 53.1061V72.4536C64.5728 72.8997 64.2112 73.2613 63.7651 73.2613H66.3317C66.7778 73.2613 67.1394 72.8997 67.1394 72.4536V53.1061C67.1394 52.66 66.7778 52.2984 66.3317 52.2984Z" fill="#E76E54"/>
<path d="M36.4628 31.8593H35.0039V30.4571H36.4628C36.6821 30.4571 36.8598 30.2796 36.8598 30.0604C36.8598 29.8411 36.6821 29.6634 36.4628 29.6634H35.0039V27.7178C35.0039 27.4338 34.9477 27.2254 34.8371 27.0984C34.732 26.9776 34.5937 26.9214 34.4023 26.9214C34.2196 26.9214 34.0866 26.9772 33.9835 27.0973C33.8741 27.2244 33.8186 27.4332 33.8186 27.718V29.6637H31.0742L29.9073 27.8979C29.8075 27.7403 29.7136 27.5927 29.6224 27.451C29.5403 27.3234 29.4602 27.2195 29.3846 27.1419C29.3176 27.0733 29.2413 27.0201 29.1521 26.9793C29.0679 26.9408 28.9608 26.9215 28.8341 26.9215C28.6726 26.9215 28.526 26.9658 28.3855 27.0567C28.2466 27.1466 28.1505 27.2578 28.0919 27.3967C28.0404 27.5286 28.0131 27.7308 28.0131 27.9917V29.6635H26.5686C26.3495 29.6636 26.1719 29.8412 26.1719 30.0605C26.1719 30.2797 26.3495 30.4573 26.5687 30.4573H28.0131V31.8596H26.5687C26.3495 31.8596 26.1719 32.0372 26.1719 32.2565C26.1719 32.4757 26.3495 32.6532 26.5687 32.6532H28.0131V34.8745C28.0131 35.1501 28.0711 35.3565 28.1858 35.4876C28.2948 35.6126 28.4332 35.6707 28.621 35.6707C28.8022 35.6707 28.9394 35.6124 29.0532 35.4871C29.1698 35.3588 29.2287 35.1526 29.2287 34.8746V32.6532H31.7121L33.0559 34.7139C33.1494 34.8501 33.2459 34.9876 33.3421 35.1224C33.4289 35.2435 33.5236 35.3501 33.6236 35.4392C33.7136 35.5198 33.81 35.5789 33.9103 35.6149C34.0136 35.6521 34.1343 35.6709 34.2682 35.6709C34.6316 35.6709 35.0038 35.5597 35.0038 34.7345V32.6532H36.4628C36.682 32.6532 36.8597 32.4754 36.8597 32.2562C36.8598 32.037 36.6821 31.8593 36.4628 31.8593ZM33.8186 30.4571V31.8593H32.5255L31.599 30.4571H33.8186ZM29.2287 28.846L29.762 29.6634H29.2287V28.846ZM29.2287 31.8593V30.4571H30.2798L31.1943 31.8593H29.2287ZM33.8186 33.8164L33.0501 32.6532H33.8186V33.8164Z" fill="#77959E" stroke="#77959E" stroke-width="0.5"/>
</svg>
