<svg width="98" height="98" viewBox="0 0 98 98" fill="none" xmlns="http://www.w3.org/2000/svg">
<rect width="98" height="98" rx="15" fill="#3A0545" fill-opacity="0.11"/>
<path d="M77.4648 19.1458V73.1768C77.5073 73.6486 77.1595 74.0656 76.6877 74.1081C76.4357 74.1307 76.1865 74.0411 76.0068 73.863L70.3463 68.5456C69.9877 68.2879 69.5044 68.2879 69.1457 68.5456L67.1732 70.3466V29.1801C67.1732 26.3382 64.8693 24.0342 62.0274 24.0342H30.2949V19.1457C30.2949 16.3039 32.5989 14 35.4407 14H72.319C75.1611 14 77.4648 16.3039 77.4648 19.1458Z" fill="#E76E54"/>
<path d="M67.1731 70.3466V83.2969C67.2156 83.7687 66.8677 84.1857 66.396 84.2282C66.144 84.2508 65.8948 84.1612 65.715 83.9831L60.0546 78.6657C59.6959 78.408 59.2126 78.408 58.8539 78.6657L52.0787 84.755C51.7451 85.0818 51.2115 85.0818 50.8781 84.755L44.1885 78.6657C43.8298 78.408 43.3466 78.408 42.9879 78.6657L36.2983 84.755C35.9648 85.0818 35.4311 85.0818 35.0977 84.755L28.3225 78.6657C27.9638 78.408 27.4805 78.408 27.1218 78.6657L21.4614 83.9831C21.125 84.3165 20.582 84.3142 20.2486 83.9778C20.0705 83.7981 19.9807 83.5489 20.0035 83.2969V29.1801C20.0035 26.3382 22.3074 24.0342 25.1493 24.0342H62.0276C64.8695 24.0342 67.1734 26.338 67.1734 29.1801V70.3466H67.1731Z" fill="#ECCE93"/>
<path d="M43.9322 41.4443H32.9545C32.0072 41.4443 31.2393 40.6764 31.2393 39.7291C31.2393 38.7817 32.0072 38.0138 32.9545 38.0138H43.9322C44.8795 38.0138 45.6474 38.7817 45.6474 39.7291C45.6474 40.6764 44.8794 41.4443 43.9322 41.4443Z" fill="#77959E"/>
<path d="M54.223 52.5936H32.9536C32.0062 52.5936 31.2383 51.8256 31.2383 50.8783C31.2383 49.931 32.0062 49.163 32.9536 49.163H54.2228C55.1702 49.163 55.9381 49.931 55.9381 50.8783C55.9381 51.8256 55.1702 52.5936 54.223 52.5936Z" fill="#77959E"/>
<path d="M54.223 63.7427H32.9536C32.0062 63.7427 31.2383 62.9748 31.2383 62.0275C31.2383 61.0801 32.0062 60.3122 32.9536 60.3122H54.2228C55.1702 60.3122 55.9381 61.0801 55.9381 62.0275C55.9381 62.9748 55.1702 63.7427 54.223 63.7427Z" fill="#77959E"/>
</svg>
