<svg width="98" height="98" viewBox="0 0 98 98" fill="none" xmlns="http://www.w3.org/2000/svg">
<rect width="98" height="98" rx="15" fill="#3A0545" fill-opacity="0.11"/>
<path d="M69.625 20.875H28.375C26.3041 20.875 24.625 22.5541 24.625 24.625V75.25C24.625 77.3209 26.3041 79 28.375 79H69.625C71.6959 79 73.375 77.3209 73.375 75.25V24.625C73.375 22.5541 71.6959 20.875 69.625 20.875Z" fill="#ECCE93"/>
<path d="M69.625 62.9014V24.625H28.375V75.25H57.2764L69.625 62.9014Z" fill="#E4EDFB"/>
<path d="M57.2764 62.9014V75.25L69.625 62.9014H57.2764Z" fill="#E76E54"/>
<path d="M58.375 26.5V19H39.625V26.5C39.625 28.5709 41.3041 30.25 43.375 30.25H54.625C56.6959 30.25 58.375 28.5709 58.375 26.5Z" fill="#E76E54"/>
<path d="M64 34H60.25V37.75H64V34Z" fill="#77959E"/>
<path d="M64 41.5H60.25V45.25H64V41.5Z" fill="#77959E"/>
<path d="M64 49H60.25V52.75H64V49Z" fill="#77959E"/>
<path d="M54.625 34H35.875C34.8395 34 34 34.8395 34 35.875C34 36.9105 34.8395 37.75 35.875 37.75H54.625C55.6605 37.75 56.5 36.9105 56.5 35.875C56.5 34.8395 55.6605 34 54.625 34Z" fill="#77959E"/>
<path d="M54.625 41.5H35.875C34.8395 41.5 34 42.3395 34 43.375C34 44.4105 34.8395 45.25 35.875 45.25H54.625C55.6605 45.25 56.5 44.4105 56.5 43.375C56.5 42.3395 55.6605 41.5 54.625 41.5Z" fill="#77959E"/>
<path d="M54.625 49H35.875C34.8395 49 34 49.8395 34 50.875C34 51.9105 34.8395 52.75 35.875 52.75H54.625C55.6605 52.75 56.5 51.9105 56.5 50.875C56.5 49.8395 55.6605 49 54.625 49Z" fill="#77959E"/>
<path d="M64 56.5H60.25V60.25H64V56.5Z" fill="#77959E"/>
<path d="M54.625 56.5H35.875C34.8395 56.5 34 57.3395 34 58.375C34 59.4105 34.8395 60.25 35.875 60.25H54.625C55.6605 60.25 56.5 59.4105 56.5 58.375C56.5 57.3395 55.6605 56.5 54.625 56.5Z" fill="#77959E"/>
</svg>
