<svg width="98" height="98" viewBox="0 0 98 98" fill="none" xmlns="http://www.w3.org/2000/svg">
<rect width="98" height="98" rx="15" fill="#3A0545" fill-opacity="0.11"/>
<path d="M23.625 21.8125H63.5C65.5019 21.8125 67.125 23.4356 67.125 25.4375V74.375C67.125 76.3769 65.5019 78 63.5 78H23.625C21.6231 78 20 76.3769 20 74.375V25.4375C20 23.4356 21.6231 21.8125 23.625 21.8125Z" fill="#ECCE93"/>
<path d="M23.625 62.438V25.4375H63.5V74.375H35.562L23.625 62.438Z" fill="#EFEFEF"/>
<path d="M35.562 62.438V74.375L23.625 62.438H35.562Z" fill="#E76E54"/>
<path d="M34.5 27.25V20H52.625V27.25C52.625 29.2519 51.0019 30.875 49 30.875H38.125C36.1231 30.875 34.5 29.2519 34.5 27.25Z" fill="#E76E54"/>
<path d="M78 61.6875C78 70.6965 70.6965 78 61.6875 78C52.6785 78 45.375 70.6965 45.375 61.6875C45.375 52.6785 52.6785 45.375 61.6875 45.375C70.6965 45.375 78 52.6785 78 61.6875Z" fill="#48C8EF"/>
<path d="M57.95 68.6711L54.4374 65.1567C53.7298 64.4487 53.7298 63.3013 54.4374 62.5938C55.145 61.8862 56.2924 61.8862 57.0004 62.5938L58.1748 63.7664L66.3837 56.9244C67.1528 56.2828 68.2967 56.3867 68.9374 57.1563C69.579 57.9253 69.4751 59.0692 68.7055 59.71L57.95 68.6711Z" fill="white"/>
<path d="M39.9375 34.5H54.4375C55.4384 34.5 56.25 35.3116 56.25 36.3125C56.25 37.3134 55.4384 38.125 54.4375 38.125H39.9375C38.9366 38.125 38.125 37.3134 38.125 36.3125C38.125 35.3116 38.9366 34.5 39.9375 34.5Z" fill="#77959E"/>
<path d="M30.875 34.5H34.5V38.125H30.875V34.5Z" fill="#77959E"/>
<path d="M30.875 41.75H34.5V45.375H30.875V41.75Z" fill="#77959E"/>
<path d="M30.875 49H34.5V52.625H30.875V49Z" fill="#77959E"/>
<path d="M30.875 56.25H34.5V59.875H30.875V56.25Z" fill="#77959E"/>
<path d="M39.9375 41.75H50.8125C51.8134 41.75 52.625 42.5616 52.625 43.5625C52.625 44.5634 51.8134 45.375 50.8125 45.375H39.9375C38.9366 45.375 38.125 44.5634 38.125 43.5625C38.125 42.5616 38.9366 41.75 39.9375 41.75Z" fill="#77959E"/>
<path d="M39.9375 49H43.5625C44.5634 49 45.375 49.8116 45.375 50.8125C45.375 51.8134 44.5634 52.625 43.5625 52.625H39.9375C38.9366 52.625 38.125 51.8134 38.125 50.8125C38.125 49.8116 38.9366 49 39.9375 49Z" fill="#77959E"/>
</svg>
