<svg width="98" height="98" viewBox="0 0 98 98" fill="none" xmlns="http://www.w3.org/2000/svg">
<rect width="98" height="98" rx="15" fill="#3A0545" fill-opacity="0.11"/>
<path d="M25.3592 73.0375L32.5826 71.4477L34.8214 78.5153C34.9824 79.0235 35.6706 79.098 35.9365 78.636L44.8726 63.1128C40.4708 62.1591 36.5543 59.8986 33.547 56.757L24.6965 72.1334C24.4309 72.5947 24.8394 73.1519 25.3592 73.0375Z" fill="#FD646F"/>
<path d="M25.3592 73.0373L32.0359 71.5678C32.3456 71.4996 32.656 71.6789 32.7517 71.9811L34.8214 78.5151C34.9824 79.0233 35.6706 79.0978 35.9365 78.6358L43.592 65.3362L44.8726 63.1126C40.4708 62.1588 36.5543 59.8984 33.547 56.7567L32.2762 58.963L24.6964 72.1332C24.4311 72.5947 24.8395 73.1518 25.3592 73.0373Z" fill="#E76E54"/>
<path d="M25.3586 73.0371L32.0348 71.5677C32.3449 71.5003 32.6549 71.6793 32.7505 71.9807L32.0319 69.7477C31.935 69.4465 31.6245 69.2687 31.3156 69.3373L25.5706 70.6143L24.6956 72.1339C24.4297 72.5947 24.839 73.1522 25.3586 73.0371Z" fill="#E76E54"/>
<path d="M52.9869 62.9264L62.0643 78.6925C62.3302 79.1545 63.0184 79.0799 63.1794 78.5718L65.2492 72.0377C65.3449 71.7355 65.6554 71.5562 65.965 71.6244L72.6416 73.0938C73.1614 73.2082 73.5698 72.651 73.3043 72.1898L64.8618 57.5225C61.71 60.5106 57.4586 62.1902 52.9869 62.9264Z" fill="#E76E54"/>
<path d="M63.6673 59.7043L71.1903 72.7737L72.6415 73.0934C73.1613 73.208 73.5699 72.6508 73.3043 72.1894L66.1181 59.7043L64.1747 56.3193C63.6515 56.8147 63.1049 57.2855 62.5351 57.728L63.6673 59.7043Z" fill="#E76E54"/>
<path d="M61.1792 77.1532L62.0652 78.6924C62.3312 79.1544 63.0186 79.0809 63.1804 78.5723L65.2502 72.0382C65.3457 71.7355 65.6558 71.5566 65.9658 71.624L63.6767 71.1205C63.3671 71.0524 63.0567 71.2316 62.961 71.5337L61.1792 77.1532Z" fill="#E76E54"/>
<path d="M64.6578 57.1493L58.6876 59.8416L52.9872 62.9264L54.5157 65.5795C58.7778 64.7142 62.7323 62.7303 66.0005 59.8086C66.0397 59.7742 66.0789 59.7398 66.1182 59.7041L64.6578 57.1493Z" fill="#E76E54"/>
<path d="M32.2762 58.9631L33.547 56.7568L40.2715 59.7249L44.8726 63.1127L44.3554 64.0106L43.0855 66.2161L35.9365 78.6358C35.6706 79.0977 34.9824 79.0232 34.8214 78.5151L34.3661 77.0779L41.4718 64.7008C38.0319 63.5038 34.9004 61.5563 32.2762 58.9631Z" fill="#E76E54"/>
<path d="M26.7601 41.3077C26.7601 47.3034 29.1191 52.7486 32.9584 56.7569C35.9656 59.8985 39.8821 62.159 44.2839 63.1128C45.8047 63.4422 47.3818 63.6154 49.0007 63.6154C50.2359 63.6154 51.4466 63.5146 52.6267 63.3205C56.8692 62.6223 60.7085 60.7196 63.7819 57.9737C63.9486 57.8262 64.1116 57.6763 64.2733 57.5226C64.8469 56.9794 65.3909 56.4053 65.9056 55.8043C66.3983 55.2267 66.8615 54.6231 67.2941 53.9963C68.593 52.117 69.6114 50.0261 70.289 47.7866C70.9079 45.7365 71.2412 43.562 71.2412 41.3078C71.2412 28.988 61.2833 19 49.0007 19C46.7544 19 44.5854 19.3343 42.5426 19.9563C40.3086 20.6336 38.2253 21.655 36.3504 22.9592C35.7254 23.3931 35.1237 23.8577 34.549 24.353C33.7794 25.0118 33.0564 25.7235 32.3836 26.4806C28.885 30.4225 26.7601 35.6168 26.7601 41.3077Z" fill="#F3CA78"/>
<path d="M49.0004 57.2855C40.2026 57.2855 33.0706 50.1319 33.0706 41.3075C33.0706 32.4832 40.2026 25.3296 49.0004 25.3296C57.7982 25.3296 64.9302 32.4832 64.9302 41.3075C64.9302 50.1319 57.7982 57.2855 49.0004 57.2855Z" fill="#FAD207"/>
<path d="M33.0706 41.3077C33.0706 50.1317 40.2027 57.2853 49.0002 57.2853C57.7976 57.2853 64.9297 50.1317 64.9297 41.3077C64.9297 40.6414 64.8892 39.985 64.8096 39.3411C63.8439 47.2383 57.1334 53.352 49.0002 53.352C40.8669 53.352 34.1564 47.2383 33.1907 39.3411C33.1111 39.9852 33.0706 40.6415 33.0706 41.3077Z" fill="#FAD207"/>
<path fill-rule="evenodd" clip-rule="evenodd" d="M49.0002 25.3302C57.7976 25.3302 64.9297 32.4838 64.9297 41.3079C64.9297 50.1319 57.7976 57.2856 49.0002 57.2856C40.2027 57.2856 33.0706 50.1319 33.0706 41.3079C33.0706 32.4838 40.2027 25.3302 49.0002 25.3302ZM49.0002 55.4418C56.7707 55.4418 63.0915 49.1018 63.0915 41.3079C63.0915 33.514 56.7707 27.174 49.0002 27.174C41.2296 27.174 34.9088 33.514 34.9088 41.3079C34.9088 49.1018 41.2296 55.4418 49.0002 55.4418Z" fill="#FAF063"/>
<path d="M48.4497 32.472L46.2614 36.9421C46.1724 37.1242 45.999 37.2504 45.7982 37.2792L40.8804 37.9858C40.3771 38.0581 40.1758 38.6766 40.5401 39.0312L44.107 42.5045C44.2518 42.6455 44.3178 42.8488 44.2833 43.048L43.4334 47.9589C43.3465 48.4606 43.874 48.8432 44.324 48.6049L48.7132 46.279C48.8926 46.1839 49.1075 46.1839 49.2869 46.279L53.6761 48.6049C54.1261 48.8433 54.6536 48.4607 54.5668 47.9589L53.7168 43.048C53.6824 42.8488 53.7483 42.6455 53.8931 42.5045L57.46 39.0312C57.8244 38.6764 57.623 38.0581 57.1197 37.9858L52.2019 37.2792C52.0013 37.2504 51.8279 37.1242 51.7387 36.9421L49.5504 32.472C49.3263 32.0142 48.6739 32.0142 48.4497 32.472Z" fill="#E76E54"/>
</svg>
