<svg width="98" height="98" viewBox="0 0 98 98" fill="none" xmlns="http://www.w3.org/2000/svg">
<rect width="98" height="98" rx="15" fill="#3A0545" fill-opacity="0.11"/>
<path d="M36.5863 31.2068H20.0347V71.5516H36.5863V31.2068Z" fill="#B0BCBF"/>
<path d="M77 31H37V72H77V31Z" fill="#E9E4EB"/>
<path d="M75.8965 25H22.1035C20.3895 25 19 26.3894 19 28.1034V69.4826C19 71.1966 20.3895 72.5861 22.1035 72.5861H75.8965C77.6105 72.5861 79 71.1966 79 69.4826V28.1034C79 26.3894 77.6105 25 75.8965 25ZM76.9311 69.4827C76.9311 70.054 76.4678 70.5173 75.8965 70.5173H22.1035C21.5322 70.5173 21.0689 70.054 21.0689 69.4827V32.2414C21.0689 31.6701 21.5322 31.2068 22.1035 31.2068H75.8965C76.4678 31.2068 76.9311 31.6701 76.9311 32.2414V69.4827Z" fill="#ECCE93"/>
<path d="M22.1034 29.1379C22.6747 29.1379 23.1379 28.6747 23.1379 28.1034C23.1379 27.532 22.6747 27.0688 22.1034 27.0688C21.532 27.0688 21.0688 27.532 21.0688 28.1034C21.0688 28.6747 21.532 29.1379 22.1034 29.1379Z" fill="#FF6464"/>
<path d="M25.2069 29.1379C25.7783 29.1379 26.2414 28.6747 26.2414 28.1034C26.2414 27.532 25.7783 27.0688 25.2069 27.0688C24.6355 27.0688 24.1724 27.532 24.1724 28.1034C24.1724 28.6747 24.6355 29.1379 25.2069 29.1379Z" fill="#FFE182"/>
<path d="M28.3104 29.1379C28.8818 29.1379 29.3449 28.6747 29.3449 28.1034C29.3449 27.532 28.8818 27.0688 28.3104 27.0688C27.7391 27.0688 27.2759 27.532 27.2759 28.1034C27.2759 28.6747 27.7391 29.1379 28.3104 29.1379Z" fill="#A5D76E"/>
<path d="M33.4826 29.1379H32.4481C31.8768 29.1379 31.4136 28.6747 31.4136 28.1034C31.4136 27.5321 31.8768 27.0688 32.4481 27.0688H33.4826C34.0539 27.0688 34.5172 27.5321 34.5172 28.1034C34.5172 28.6747 34.0539 29.1379 33.4826 29.1379Z" fill="white"/>
<path d="M37.6208 29.1379H36.5863C36.015 29.1379 35.5518 28.6747 35.5518 28.1034C35.5518 27.5321 36.015 27.0688 36.5863 27.0688H37.6208C38.1921 27.0688 38.6554 27.5321 38.6554 28.1034C38.6552 28.6747 38.1921 29.1379 37.6208 29.1379Z" fill="white"/>
<path d="M71.7585 29.1379H70.724C70.1527 29.1379 69.6895 28.6747 69.6895 28.1034C69.6895 27.5321 70.1527 27.0688 70.724 27.0688H71.7585C72.3298 27.0688 72.793 27.5321 72.793 28.1034C72.7929 28.6747 72.3298 29.1379 71.7585 29.1379Z" fill="white"/>
<path d="M75.8967 29.1379H74.8622C74.2909 29.1379 73.8276 28.6747 73.8276 28.1034C73.8276 27.5321 74.2909 27.0688 74.8622 27.0688H75.8967C76.468 27.0688 76.9312 27.5321 76.9312 28.1034C76.9312 28.6747 76.468 29.1379 75.8967 29.1379Z" fill="white"/>
<path d="M66.5862 29.1379H41.7587C41.1874 29.1379 40.7241 28.6747 40.7241 28.1034C40.7241 27.5321 41.1874 27.0688 41.7587 27.0688H66.5862C67.1575 27.0688 67.6208 27.5321 67.6208 28.1034C67.6208 28.6747 67.1575 29.1379 66.5862 29.1379Z" fill="white"/>
<path d="M33.483 36.3792H24.1727C23.6014 36.3792 23.1382 35.916 23.1382 35.3447C23.1382 34.7734 23.6014 34.3102 24.1727 34.3102H33.483C34.0543 34.3102 34.5176 34.7734 34.5176 35.3447C34.5176 35.916 34.0543 36.3792 33.483 36.3792Z" fill="#5C94A2"/>
<path d="M25.2072 44.6551H24.1727C23.6014 44.6551 23.1382 44.1919 23.1382 43.6206C23.1382 43.0493 23.6014 42.5861 24.1727 42.5861H25.2072C25.7785 42.5861 26.2418 43.0493 26.2418 43.6206C26.2417 44.1919 25.7785 44.6551 25.2072 44.6551Z" fill="#5C94A2"/>
<path d="M33.4825 44.6551H29.3446C28.7733 44.6551 28.3101 44.1919 28.3101 43.6206C28.3101 43.0493 28.7733 42.5861 29.3446 42.5861H33.4825C34.0538 42.5861 34.517 43.0493 34.517 43.6206C34.517 44.1919 34.0539 44.6551 33.4825 44.6551Z" fill="#5C94A2"/>
<path d="M25.2072 48.7931H24.1727C23.6014 48.7931 23.1382 48.3298 23.1382 47.7585C23.1382 47.1872 23.6014 46.724 24.1727 46.724H25.2072C25.7785 46.724 26.2418 47.1872 26.2418 47.7585C26.2417 48.3298 25.7785 48.7931 25.2072 48.7931Z" fill="#ECCE93"/>
<path d="M33.4825 48.7931H29.3446C28.7733 48.7931 28.3101 48.3298 28.3101 47.7585C28.3101 47.1872 28.7733 46.724 29.3446 46.724H33.4825C34.0538 46.724 34.517 47.1872 34.517 47.7585C34.517 48.3298 34.0539 48.7931 33.4825 48.7931Z" fill="#ECCE93"/>
<path d="M25.2072 52.931H24.1727C23.6014 52.931 23.1382 52.4678 23.1382 51.8965C23.1382 51.3252 23.6014 50.8619 24.1727 50.8619H25.2072C25.7785 50.8619 26.2418 51.3252 26.2418 51.8965C26.2417 52.4679 25.7785 52.931 25.2072 52.931Z" fill="#5C94A2"/>
<path d="M33.483 52.931H29.3451C28.7738 52.931 28.3105 52.4678 28.3105 51.8965C28.3105 51.3252 28.7738 50.8619 29.3451 50.8619H33.483C34.0543 50.8619 34.5175 51.3252 34.5175 51.8965C34.5175 52.4679 34.0544 52.931 33.483 52.931Z" fill="#5C94A2"/>
<path d="M30.3796 57.069H24.1727C23.6014 57.069 23.1382 56.6058 23.1382 56.0345C23.1382 55.4632 23.6014 54.9999 24.1727 54.9999H30.3797C30.951 54.9999 31.4142 55.4632 31.4142 56.0345C31.4141 56.6058 30.9508 57.069 30.3796 57.069Z" fill="#5C94A2"/>
<path d="M30.3796 61.2069H24.1727C23.6014 61.2069 23.1382 60.7436 23.1382 60.1723C23.1382 59.6011 23.6014 59.1378 24.1727 59.1378H30.3797C30.951 59.1378 31.4142 59.6011 31.4142 60.1723C31.4141 60.7436 30.9508 61.2069 30.3796 61.2069Z" fill="#5C94A2"/>
<path d="M30.3796 40.5172H24.1727C23.6014 40.5172 23.1382 40.0539 23.1382 39.4827C23.1382 38.9114 23.6014 38.4481 24.1727 38.4481H30.3797C30.951 38.4481 31.4142 38.9114 31.4142 39.4827C31.4141 40.0541 30.9508 40.5172 30.3796 40.5172Z" fill="#E76E54"/>
<path d="M40.6626 51.0707C40.6626 47.6436 42.6072 45.5205 45.6625 45.5205C47.6524 45.5205 49.263 46.51 49.9552 48.0815C50.2251 48.6941 49.7765 49.387 49.1072 49.387H49.0806C48.7145 49.387 48.379 49.1705 48.242 48.8309C47.8267 47.8004 46.8535 47.152 45.6624 47.152C43.8138 47.152 42.6297 48.6718 42.6297 51.0706C42.6297 53.4853 43.8071 54.9971 45.6693 54.9971C46.8864 54.9971 47.8086 54.4364 48.2371 53.4641C48.3806 53.1386 48.7087 52.9339 49.0643 52.9339C49.741 52.9339 50.1949 53.6444 49.9045 54.2555C49.1904 55.7578 47.6709 56.6286 45.6625 56.6286C42.5924 56.6289 40.6626 54.5204 40.6626 51.0707Z" fill="#E76E54"/>
<path d="M57.7127 52.1136C58.994 51.6526 59.7386 50.4673 59.7386 49.0447C59.7386 46.9883 58.3454 45.6989 56.0212 45.6989H52.7791C52.1827 45.6989 51.6992 46.1824 51.6992 46.7787V55.4341C51.6992 55.9549 52.0891 56.4215 52.6091 56.4487C53.1636 56.4777 53.6224 56.0367 53.6224 55.4885V52.4049H55.7523L57.5912 55.9328C57.7569 56.2506 58.0855 56.4501 58.4441 56.4501C59.1733 56.4501 59.6379 55.6708 59.2906 55.0292L57.7127 52.1136ZM55.8426 50.9295H53.6224V47.256H55.7975C57.019 47.256 57.7647 47.9566 57.7647 49.0887C57.7647 50.2516 57.0641 50.9295 55.8426 50.9295Z" fill="#E76E54"/>
<path d="M71.9287 56.4503C71.4513 56.4503 71.0642 56.0633 71.0642 55.5858V48.821H71.0122L68.1547 55.7551C68.0035 56.1216 67.6462 56.361 67.2497 56.361C66.8531 56.361 66.4957 56.1219 66.3446 55.7551L63.487 48.821H63.435V55.5819C63.435 56.0615 63.0461 56.4502 62.5666 56.4502C62.087 56.4502 61.6982 56.0614 61.6982 55.5819V47.0306C61.6982 46.2952 62.2944 45.6991 63.0297 45.6991C63.5718 45.6991 64.0597 46.0277 64.2636 46.53L67.2189 53.8132H67.2788L70.2365 46.5269C70.4397 46.0265 70.9258 45.6991 71.4661 45.6991C72.1988 45.6991 72.7929 46.2931 72.7929 47.0259V55.5858C72.7931 56.0633 72.4061 56.4503 71.9287 56.4503Z" fill="#E76E54"/>
</svg>
