<svg width="166" height="227" viewBox="0 0 166 227" fill="none" xmlns="http://www.w3.org/2000/svg">
<path d="M157.668 41.3908L138.898 6.9908C137.924 5.20528 136.558 3.66455 134.901 2.4852C133.244 1.30585 131.341 0.518759 129.335 0.18349C127.329 -0.151779 125.273 -0.0264467 123.323 0.550004C121.373 1.12645 119.579 2.13892 118.078 3.5108L30.698 83.3308C30.1109 83.8667 29.6996 84.5676 29.5182 85.3415C29.3368 86.1154 29.3936 86.9261 29.6814 87.667C29.9691 88.408 30.4742 89.0446 31.1304 89.4933C31.7866 89.9419 32.5631 90.1816 33.358 90.1808H44.998C66.358 90.1808 78.578 114.541 65.808 131.661L1.04797 218.431C-2.43203 223.091 3.48797 228.931 8.09797 225.431L140.148 124.131C152.459 114.698 160.992 101.173 164.205 85.9999C167.418 70.8265 165.099 55.0044 157.668 41.3908Z" fill="#3A0545"/>
</svg>
