<svg width="897" height="498" viewBox="0 0 897 498" fill="none" xmlns="http://www.w3.org/2000/svg">
<mask id="path-1-inside-1_1_1493" fill="white">
<path d="M14.6631 449.921H9.00635V455.851H5.70801V449.921H0V446.947H5.70801V441H9.00635V446.947H14.6631V449.921Z"/>
</mask>
<path d="M14.6631 449.921V451.921H16.6631V449.921H14.6631ZM9.00635 449.921V447.921H7.00635V449.921H9.00635ZM9.00635 455.851V457.851H11.0063V455.851H9.00635ZM5.70801 455.851H3.70801V457.851H5.70801V455.851ZM5.70801 449.921H7.70801V447.921H5.70801V449.921ZM0 449.921H-2V451.921H0V449.921ZM0 446.947V444.947H-2V446.947H0ZM5.70801 446.947V448.947H7.70801V446.947H5.70801ZM5.70801 441V439H3.70801V441H5.70801ZM9.00635 441H11.0063V439H9.00635V441ZM9.00635 446.947H7.00635V448.947H9.00635V446.947ZM14.6631 446.947H16.6631V444.947H14.6631V446.947ZM14.6631 447.921H9.00635V451.921H14.6631V447.921ZM7.00635 449.921V455.851H11.0063V449.921H7.00635ZM9.00635 453.851H5.70801V457.851H9.00635V453.851ZM7.70801 455.851V449.921H3.70801V455.851H7.70801ZM5.70801 447.921H0V451.921H5.70801V447.921ZM2 449.921V446.947H-2V449.921H2ZM0 448.947H5.70801V444.947H0V448.947ZM7.70801 446.947V441H3.70801V446.947H7.70801ZM5.70801 443H9.00635V439H5.70801V443ZM7.00635 441V446.947H11.0063V441H7.00635ZM9.00635 448.947H14.6631V444.947H9.00635V448.947ZM12.6631 446.947V449.921H16.6631V446.947H12.6631Z" fill="#FCCD00" fill-opacity="0.5" mask="url(#path-1-inside-1_1_1493)"/>
<mask id="path-3-inside-2_1_1493" fill="white">
<path d="M270.225 140.036L265.163 137.511L262.516 142.818L259.565 141.346L262.211 136.039L257.103 133.492L258.43 130.831L263.538 133.378L266.192 128.056L269.144 129.528L266.49 134.85L271.552 137.375L270.225 140.036Z"/>
</mask>
<path d="M270.225 140.036L269.332 141.826L271.122 142.718L272.015 140.928L270.225 140.036ZM265.163 137.511L266.055 135.721L264.266 134.829L263.373 136.619L265.163 137.511ZM262.516 142.818L261.624 144.608L263.413 145.5L264.306 143.711L262.516 142.818ZM259.565 141.346L257.775 140.453L256.882 142.243L258.672 143.136L259.565 141.346ZM262.211 136.039L264.001 136.932L264.894 135.142L263.104 134.249L262.211 136.039ZM257.103 133.492L255.313 132.599L254.421 134.389L256.211 135.282L257.103 133.492ZM258.43 130.831L259.323 129.041L257.533 128.148L256.64 129.938L258.43 130.831ZM263.538 133.378L262.646 135.168L264.435 136.06L265.328 134.271L263.538 133.378ZM266.192 128.056L267.085 126.266L265.295 125.374L264.403 127.163L266.192 128.056ZM269.144 129.528L270.934 130.421L271.827 128.631L270.037 127.738L269.144 129.528ZM266.49 134.85L264.7 133.958L263.808 135.747L265.597 136.64L266.49 134.85ZM271.552 137.375L273.342 138.267L274.234 136.477L272.445 135.585L271.552 137.375ZM271.118 138.246L266.055 135.721L264.27 139.301L269.332 141.826L271.118 138.246ZM263.373 136.619L260.726 141.925L264.306 143.711L266.953 138.404L263.373 136.619ZM263.409 141.028L260.457 139.556L258.672 143.136L261.624 144.608L263.409 141.028ZM261.354 142.239L264.001 136.932L260.421 135.147L257.775 140.453L261.354 142.239ZM263.104 134.249L257.996 131.702L256.211 135.282L261.319 137.829L263.104 134.249ZM258.893 134.384L260.22 131.723L256.64 129.938L255.313 132.599L258.893 134.384ZM257.538 132.62L262.646 135.168L264.431 131.588L259.323 129.041L257.538 132.62ZM265.328 134.271L267.982 128.949L264.403 127.163L261.749 132.486L265.328 134.271ZM265.3 129.846L268.252 131.318L270.037 127.738L267.085 126.266L265.3 129.846ZM267.354 128.635L264.7 133.958L268.28 135.743L270.934 130.421L267.354 128.635ZM265.597 136.64L270.659 139.164L272.445 135.585L267.383 133.06L265.597 136.64ZM269.762 136.482L268.435 139.143L272.015 140.928L273.342 138.267L269.762 136.482Z" fill="#FCCD00" fill-opacity="0.5" mask="url(#path-3-inside-2_1_1493)"/>
<mask id="path-5-inside-3_1_1493" fill="white">
<path d="M44.6631 134.921H39.0063V140.851H35.708V134.921H30V131.947H35.708V126H39.0063V131.947H44.6631V134.921Z"/>
</mask>
<path d="M44.6631 134.921V136.921H46.6631V134.921H44.6631ZM39.0063 134.921V132.921H37.0063V134.921H39.0063ZM39.0063 140.851V142.851H41.0063V140.851H39.0063ZM35.708 140.851H33.708V142.851H35.708V140.851ZM35.708 134.921H37.708V132.921H35.708V134.921ZM30 134.921H28V136.921H30V134.921ZM30 131.947V129.947H28V131.947H30ZM35.708 131.947V133.947H37.708V131.947H35.708ZM35.708 126V124H33.708V126H35.708ZM39.0063 126H41.0063V124H39.0063V126ZM39.0063 131.947H37.0063V133.947H39.0063V131.947ZM44.6631 131.947H46.6631V129.947H44.6631V131.947ZM44.6631 132.921H39.0063V136.921H44.6631V132.921ZM37.0063 134.921V140.851H41.0063V134.921H37.0063ZM39.0063 138.851H35.708V142.851H39.0063V138.851ZM37.708 140.851V134.921H33.708V140.851H37.708ZM35.708 132.921H30V136.921H35.708V132.921ZM32 134.921V131.947H28V134.921H32ZM30 133.947H35.708V129.947H30V133.947ZM37.708 131.947V126H33.708V131.947H37.708ZM35.708 128H39.0063V124H35.708V128ZM37.0063 126V131.947H41.0063V126H37.0063ZM39.0063 133.947H44.6631V129.947H39.0063V133.947ZM42.6631 131.947V134.921H46.6631V131.947H42.6631Z" fill="#FCCD00" fill-opacity="0.5" mask="url(#path-5-inside-3_1_1493)"/>
<mask id="path-7-inside-4_1_1493" fill="white">
<path d="M890.076 152.927L886.376 148.648L881.89 152.526L879.733 150.031L884.219 146.152L880.486 141.835L882.735 139.89L886.469 144.208L890.968 140.318L893.125 142.813L888.626 146.703L892.326 150.982L890.076 152.927Z"/>
</mask>
<path d="M890.076 152.927L888.563 154.235L889.871 155.748L891.384 154.44L890.076 152.927ZM886.376 148.648L887.889 147.339L886.581 145.827L885.068 147.135L886.376 148.648ZM881.89 152.526L880.378 153.834L881.686 155.347L883.199 154.039L881.89 152.526ZM879.733 150.031L878.425 148.518L876.912 149.826L878.22 151.339L879.733 150.031ZM884.219 146.152L885.527 147.665L887.04 146.357L885.732 144.844L884.219 146.152ZM880.486 141.835L879.178 140.322L877.665 141.63L878.973 143.143L880.486 141.835ZM882.735 139.89L884.248 138.582L882.94 137.069L881.427 138.377L882.735 139.89ZM886.469 144.208L884.956 145.516L886.264 147.029L887.777 145.721L886.469 144.208ZM890.968 140.318L892.481 139.01L891.172 137.497L889.66 138.805L890.968 140.318ZM893.125 142.813L894.433 144.326L895.946 143.018L894.638 141.505L893.125 142.813ZM888.626 146.703L887.318 145.19L885.805 146.498L887.113 148.011L888.626 146.703ZM892.326 150.982L893.634 152.495L895.147 151.187L893.839 149.674L892.326 150.982ZM891.589 151.619L887.889 147.339L884.864 149.956L888.563 154.235L891.589 151.619ZM885.068 147.135L880.582 151.013L883.199 154.039L887.685 150.16L885.068 147.135ZM883.403 151.218L881.246 148.723L878.22 151.339L880.378 153.834L883.403 151.218ZM881.041 151.544L885.527 147.665L882.911 144.64L878.425 148.518L881.041 151.544ZM885.732 144.844L881.999 140.526L878.973 143.143L882.706 147.461L885.732 144.844ZM881.794 143.347L884.044 141.403L881.427 138.377L879.178 140.322L881.794 143.347ZM881.223 141.198L884.956 145.516L887.982 142.9L884.248 138.582L881.223 141.198ZM887.777 145.721L892.276 141.831L889.66 138.805L885.161 142.695L887.777 145.721ZM889.455 141.626L891.612 144.121L894.638 141.505L892.481 139.01L889.455 141.626ZM891.817 141.3L887.318 145.19L889.934 148.216L894.433 144.326L891.817 141.3ZM887.113 148.011L890.813 152.29L893.839 149.674L890.139 145.395L887.113 148.011ZM891.018 149.469L888.768 151.414L891.384 154.44L893.634 152.495L891.018 149.469Z" fill="#FCCD00" fill-opacity="0.5" mask="url(#path-7-inside-4_1_1493)"/>
<path d="M645 7C645 7.32803 644.928 7.48049 644.876 7.55647C644.82 7.63728 644.719 7.7298 644.501 7.82598C644.274 7.92656 643.977 8.00675 643.582 8.08901C643.451 8.11623 643.29 8.14702 643.118 8.18007C642.845 8.2324 642.543 8.29041 642.282 8.3489C641.36 8.55527 640.241 8.90138 639.373 9.80359C638.659 10.5462 638.207 11.5641 638.056 12.9262C635.191 12.4735 633 9.9926 633 7C633 3.68629 635.686 1 639 1C642.314 1 645 3.68629 645 7Z" stroke="#DB0B5B" stroke-opacity="0.45" stroke-width="2"/>
<path d="M597 474C597 474.328 596.928 474.48 596.876 474.556C596.82 474.637 596.719 474.73 596.501 474.826C596.274 474.927 595.977 475.007 595.582 475.089C595.451 475.116 595.29 475.147 595.118 475.18C594.845 475.232 594.543 475.29 594.282 475.349C593.36 475.555 592.241 475.901 591.373 476.804C590.659 477.546 590.207 478.564 590.056 479.926C587.191 479.473 585 476.993 585 474C585 470.686 587.686 468 591 468C594.314 468 597 470.686 597 474Z" stroke="#DB0B5B" stroke-opacity="0.45" stroke-width="2"/>
<path d="M358 24C358 24.328 357.928 24.4805 357.876 24.5565C357.82 24.6373 357.719 24.7298 357.501 24.826C357.274 24.9266 356.977 25.0068 356.582 25.089C356.451 25.1162 356.29 25.147 356.118 25.1801C355.845 25.2324 355.543 25.2904 355.282 25.3489C354.36 25.5553 353.241 25.9014 352.373 26.8036C351.659 27.5462 351.207 28.5641 351.056 29.9262C348.191 29.4735 346 26.9926 346 24C346 20.6863 348.686 18 352 18C355.314 18 358 20.6863 358 24Z" stroke="#DB0B5B" stroke-opacity="0.45" stroke-width="2"/>
<path d="M310 491C310 491.328 309.928 491.48 309.876 491.556C309.82 491.637 309.719 491.73 309.501 491.826C309.274 491.927 308.977 492.007 308.582 492.089C308.451 492.116 308.29 492.147 308.118 492.18C307.845 492.232 307.543 492.29 307.282 492.349C306.36 492.555 305.241 492.901 304.373 493.804C303.659 494.546 303.207 495.564 303.056 496.926C300.191 496.473 298 493.993 298 491C298 487.686 300.686 485 304 485C307.314 485 310 487.686 310 491Z" stroke="#DB0B5B" stroke-opacity="0.45" stroke-width="2"/>
<path d="M154.972 112C155.891 112.844 156.636 113.819 157.164 114.87C157.691 115.92 157.992 117.026 158.048 118.124C158.104 119.222 157.914 120.291 157.49 121.269C157.065 122.247 156.415 123.115 155.574 123.824C154.734 124.533 153.721 125.069 152.593 125.401C151.465 125.733 150.244 125.855 149 125.76" stroke="#CCCCCC" stroke-opacity="0.46" stroke-width="2" stroke-linecap="round"/>
<path d="M413.972 456C414.891 456.844 415.636 457.819 416.164 458.87C416.691 459.92 416.992 461.026 417.048 462.124C417.104 463.222 416.914 464.291 416.49 465.269C416.065 466.247 415.415 467.115 414.574 467.824C413.734 468.533 412.721 469.069 411.593 469.401C410.465 469.733 409.244 469.855 408 469.76" stroke="#CCCCCC" stroke-opacity="0.46" stroke-width="2" stroke-linecap="round"/>
<path d="M779.972 135C780.891 135.844 781.636 136.819 782.164 137.87C782.691 138.92 782.992 140.026 783.048 141.124C783.104 142.222 782.914 143.291 782.49 144.269C782.065 145.247 781.415 146.115 780.574 146.824C779.734 147.533 778.721 148.069 777.593 148.401C776.465 148.733 775.244 148.855 774 148.76" stroke="#CCCCCC" stroke-opacity="0.46" stroke-width="2" stroke-linecap="round"/>
</svg>
