<svg width="356" height="161" viewBox="0 0 356 161" fill="none" xmlns="http://www.w3.org/2000/svg">
<path d="M5 10C7.76142 10 10 7.76142 10 5C10 2.23858 7.76142 0 5 0C2.23858 0 0 2.23858 0 5C0 7.76142 2.23858 10 5 10Z" fill="#D6E0EB" fill-opacity="0.27"/>
<path d="M55 10C57.7614 10 60 7.76142 60 5C60 2.23858 57.7614 0 55 0C52.2386 0 50 2.23858 50 5C50 7.76142 52.2386 10 55 10Z" fill="#D6E0EB" fill-opacity="0.27"/>
<path d="M105 10C107.761 10 110 7.76142 110 5C110 2.23858 107.761 0 105 0C102.239 0 100 2.23858 100 5C100 7.76142 102.239 10 105 10Z" fill="#D6E0EB" fill-opacity="0.27"/>
<path d="M155 10C157.761 10 160 7.76142 160 5C160 2.23858 157.761 0 155 0C152.239 0 150 2.23858 150 5C150 7.76142 152.239 10 155 10Z" fill="#D6E0EB" fill-opacity="0.27"/>
<path d="M5 60C7.76142 60 10 57.7614 10 55C10 52.2386 7.76142 50 5 50C2.23858 50 0 52.2386 0 55C0 57.7614 2.23858 60 5 60Z" fill="#D6E0EB" fill-opacity="0.27"/>
<path d="M55 60C57.7614 60 60 57.7614 60 55C60 52.2386 57.7614 50 55 50C52.2386 50 50 52.2386 50 55C50 57.7614 52.2386 60 55 60Z" fill="#D6E0EB" fill-opacity="0.27"/>
<path d="M105 60C107.761 60 110 57.7614 110 55C110 52.2386 107.761 50 105 50C102.239 50 100 52.2386 100 55C100 57.7614 102.239 60 105 60Z" fill="#D6E0EB" fill-opacity="0.27"/>
<path d="M155 60C157.761 60 160 57.7614 160 55C160 52.2386 157.761 50 155 50C152.239 50 150 52.2386 150 55C150 57.7614 152.239 60 155 60Z" fill="#D6E0EB" fill-opacity="0.27"/>
<path d="M5 110C7.76142 110 10 107.761 10 105C10 102.239 7.76142 100 5 100C2.23858 100 0 102.239 0 105C0 107.761 2.23858 110 5 110Z" fill="#D6E0EB" fill-opacity="0.27"/>
<path d="M55 110C57.7614 110 60 107.761 60 105C60 102.239 57.7614 100 55 100C52.2386 100 50 102.239 50 105C50 107.761 52.2386 110 55 110Z" fill="#D6E0EB" fill-opacity="0.27"/>
<path d="M105 110C107.761 110 110 107.761 110 105C110 102.239 107.761 100 105 100C102.239 100 100 102.239 100 105C100 107.761 102.239 110 105 110Z" fill="#D6E0EB" fill-opacity="0.27"/>
<path d="M155 110C157.761 110 160 107.761 160 105C160 102.239 157.761 100 155 100C152.239 100 150 102.239 150 105C150 107.761 152.239 110 155 110Z" fill="#D6E0EB" fill-opacity="0.27"/>
<path d="M5 160C7.76142 160 10 157.761 10 155C10 152.239 7.76142 150 5 150C2.23858 150 0 152.239 0 155C0 157.761 2.23858 160 5 160Z" fill="#D6E0EB" fill-opacity="0.27"/>
<path d="M55 160C57.7614 160 60 157.761 60 155C60 152.239 57.7614 150 55 150C52.2386 150 50 152.239 50 155C50 157.761 52.2386 160 55 160Z" fill="#D6E0EB" fill-opacity="0.27"/>
<path d="M105 160C107.761 160 110 157.761 110 155C110 152.239 107.761 150 105 150C102.239 150 100 152.239 100 155C100 157.761 102.239 160 105 160Z" fill="#D6E0EB" fill-opacity="0.27"/>
<path d="M155 160C157.761 160 160 157.761 160 155C160 152.239 157.761 150 155 150C152.239 150 150 152.239 150 155C150 157.761 152.239 160 155 160Z" fill="#D6E0EB" fill-opacity="0.27"/>
<path d="M201 10C203.761 10 206 7.76142 206 5C206 2.23858 203.761 0 201 0C198.239 0 196 2.23858 196 5C196 7.76142 198.239 10 201 10Z" fill="#D6E0EB" fill-opacity="0.27"/>
<path d="M251 10C253.761 10 256 7.76142 256 5C256 2.23858 253.761 0 251 0C248.239 0 246 2.23858 246 5C246 7.76142 248.239 10 251 10Z" fill="#D6E0EB" fill-opacity="0.27"/>
<path d="M301 10C303.761 10 306 7.76142 306 5C306 2.23858 303.761 0 301 0C298.239 0 296 2.23858 296 5C296 7.76142 298.239 10 301 10Z" fill="#D6E0EB" fill-opacity="0.27"/>
<path d="M351 10C353.761 10 356 7.76142 356 5C356 2.23858 353.761 0 351 0C348.239 0 346 2.23858 346 5C346 7.76142 348.239 10 351 10Z" fill="#D6E0EB" fill-opacity="0.27"/>
<path d="M201 60C203.761 60 206 57.7614 206 55C206 52.2386 203.761 50 201 50C198.239 50 196 52.2386 196 55C196 57.7614 198.239 60 201 60Z" fill="#D6E0EB" fill-opacity="0.27"/>
<path d="M251 60C253.761 60 256 57.7614 256 55C256 52.2386 253.761 50 251 50C248.239 50 246 52.2386 246 55C246 57.7614 248.239 60 251 60Z" fill="#D6E0EB" fill-opacity="0.27"/>
<path d="M301 60C303.761 60 306 57.7614 306 55C306 52.2386 303.761 50 301 50C298.239 50 296 52.2386 296 55C296 57.7614 298.239 60 301 60Z" fill="#D6E0EB" fill-opacity="0.27"/>
<path d="M351 60C353.761 60 356 57.7614 356 55C356 52.2386 353.761 50 351 50C348.239 50 346 52.2386 346 55C346 57.7614 348.239 60 351 60Z" fill="#D6E0EB" fill-opacity="0.27"/>
<path d="M201 110C203.761 110 206 107.761 206 105C206 102.239 203.761 100 201 100C198.239 100 196 102.239 196 105C196 107.761 198.239 110 201 110Z" fill="#D6E0EB" fill-opacity="0.27"/>
<path d="M251 110C253.761 110 256 107.761 256 105C256 102.239 253.761 100 251 100C248.239 100 246 102.239 246 105C246 107.761 248.239 110 251 110Z" fill="#D6E0EB" fill-opacity="0.27"/>
<path d="M301 110C303.761 110 306 107.761 306 105C306 102.239 303.761 100 301 100C298.239 100 296 102.239 296 105C296 107.761 298.239 110 301 110Z" fill="#D6E0EB" fill-opacity="0.27"/>
<path d="M351 110C353.761 110 356 107.761 356 105C356 102.239 353.761 100 351 100C348.239 100 346 102.239 346 105C346 107.761 348.239 110 351 110Z" fill="#D6E0EB" fill-opacity="0.27"/>
<path d="M201 160C203.761 160 206 157.761 206 155C206 152.239 203.761 150 201 150C198.239 150 196 152.239 196 155C196 157.761 198.239 160 201 160Z" fill="#D6E0EB" fill-opacity="0.27"/>
<path d="M251 160C253.761 160 256 157.761 256 155C256 152.239 253.761 150 251 150C248.239 150 246 152.239 246 155C246 157.761 248.239 160 251 160Z" fill="#D6E0EB" fill-opacity="0.27"/>
<path d="M301 160C303.761 160 306 157.761 306 155C306 152.239 303.761 150 301 150C298.239 150 296 152.239 296 155C296 157.761 298.239 160 301 160Z" fill="#D6E0EB" fill-opacity="0.27"/>
<path d="M351 160C353.761 160 356 157.761 356 155C356 152.239 353.761 150 351 150C348.239 150 346 152.239 346 155C346 157.761 348.239 160 351 160Z" fill="#D6E0EB" fill-opacity="0.27"/>
</svg>
