<svg width="149" height="334" viewBox="0 0 149 334" fill="none" xmlns="http://www.w3.org/2000/svg">
<path d="M4.65625 9.37888C7.22783 9.37888 9.3125 7.27935 9.3125 4.68944C9.3125 2.09953 7.22783 0 4.65625 0C2.08467 0 0 2.09953 0 4.68944C0 7.27935 2.08467 9.37888 4.65625 9.37888Z" fill="#DB0B5B" fill-opacity="0.18"/>
<path d="M51.2188 9.37888C53.7903 9.37888 55.875 7.27935 55.875 4.68944C55.875 2.09953 53.7903 0 51.2188 0C48.6472 0 46.5625 2.09953 46.5625 4.68944C46.5625 7.27935 48.6472 9.37888 51.2188 9.37888Z" fill="#DB0B5B" fill-opacity="0.18"/>
<path d="M97.7812 9.37888C100.353 9.37888 102.438 7.27935 102.438 4.68944C102.438 2.09953 100.353 0 97.7812 0C95.2097 0 93.125 2.09953 93.125 4.68944C93.125 7.27935 95.2097 9.37888 97.7812 9.37888Z" fill="#DB0B5B" fill-opacity="0.18"/>
<path d="M144.344 9.37888C146.915 9.37888 149 7.27935 149 4.68944C149 2.09953 146.915 0 144.344 0C141.772 0 139.688 2.09953 139.688 4.68944C139.688 7.27935 141.772 9.37888 144.344 9.37888Z" fill="#DB0B5B" fill-opacity="0.18"/>
<path d="M4.65625 56.2733C7.22783 56.2733 9.3125 54.1738 9.3125 51.5839C9.3125 48.9939 7.22783 46.8944 4.65625 46.8944C2.08467 46.8944 0 48.9939 0 51.5839C0 54.1738 2.08467 56.2733 4.65625 56.2733Z" fill="#DB0B5B" fill-opacity="0.18"/>
<path d="M51.2188 56.2733C53.7903 56.2733 55.875 54.1738 55.875 51.5839C55.875 48.9939 53.7903 46.8944 51.2188 46.8944C48.6472 46.8944 46.5625 48.9939 46.5625 51.5839C46.5625 54.1738 48.6472 56.2733 51.2188 56.2733Z" fill="#DB0B5B" fill-opacity="0.18"/>
<path d="M97.7812 56.2733C100.353 56.2733 102.438 54.1738 102.438 51.5839C102.438 48.9939 100.353 46.8944 97.7812 46.8944C95.2097 46.8944 93.125 48.9939 93.125 51.5839C93.125 54.1738 95.2097 56.2733 97.7812 56.2733Z" fill="#DB0B5B" fill-opacity="0.18"/>
<path d="M144.344 56.2733C146.915 56.2733 149 54.1738 149 51.5839C149 48.9939 146.915 46.8944 144.344 46.8944C141.772 46.8944 139.688 48.9939 139.688 51.5839C139.688 54.1738 141.772 56.2733 144.344 56.2733Z" fill="#DB0B5B" fill-opacity="0.18"/>
<path d="M4.65625 103.168C7.22783 103.168 9.3125 101.068 9.3125 98.4783C9.3125 95.8884 7.22783 93.7888 4.65625 93.7888C2.08467 93.7888 0 95.8884 0 98.4783C0 101.068 2.08467 103.168 4.65625 103.168Z" fill="#DB0B5B" fill-opacity="0.18"/>
<path d="M51.2188 103.168C53.7903 103.168 55.875 101.068 55.875 98.4783C55.875 95.8884 53.7903 93.7888 51.2188 93.7888C48.6472 93.7888 46.5625 95.8884 46.5625 98.4783C46.5625 101.068 48.6472 103.168 51.2188 103.168Z" fill="#DB0B5B" fill-opacity="0.18"/>
<path d="M97.7812 103.168C100.353 103.168 102.438 101.068 102.438 98.4783C102.438 95.8884 100.353 93.7888 97.7812 93.7888C95.2097 93.7888 93.125 95.8884 93.125 98.4783C93.125 101.068 95.2097 103.168 97.7812 103.168Z" fill="#DB0B5B" fill-opacity="0.18"/>
<path d="M144.344 103.168C146.915 103.168 149 101.068 149 98.4783C149 95.8884 146.915 93.7888 144.344 93.7888C141.772 93.7888 139.688 95.8884 139.688 98.4783C139.688 101.068 141.772 103.168 144.344 103.168Z" fill="#DB0B5B" fill-opacity="0.18"/>
<path d="M4.65625 150.062C7.22783 150.062 9.3125 147.963 9.3125 145.373C9.3125 142.783 7.22783 140.683 4.65625 140.683C2.08467 140.683 0 142.783 0 145.373C0 147.963 2.08467 150.062 4.65625 150.062Z" fill="#DB0B5B" fill-opacity="0.18"/>
<path d="M51.2188 150.062C53.7903 150.062 55.875 147.963 55.875 145.373C55.875 142.783 53.7903 140.683 51.2188 140.683C48.6472 140.683 46.5625 142.783 46.5625 145.373C46.5625 147.963 48.6472 150.062 51.2188 150.062Z" fill="#DB0B5B" fill-opacity="0.18"/>
<path d="M97.7812 150.062C100.353 150.062 102.438 147.963 102.438 145.373C102.438 142.783 100.353 140.683 97.7812 140.683C95.2097 140.683 93.125 142.783 93.125 145.373C93.125 147.963 95.2097 150.062 97.7812 150.062Z" fill="#DB0B5B" fill-opacity="0.18"/>
<path d="M144.344 150.062C146.915 150.062 149 147.963 149 145.373C149 142.783 146.915 140.683 144.344 140.683C141.772 140.683 139.688 142.783 139.688 145.373C139.688 147.963 141.772 150.062 144.344 150.062Z" fill="#DB0B5B" fill-opacity="0.18"/>
<path d="M4.65625 192.379C7.22783 192.379 9.3125 190.279 9.3125 187.689C9.3125 185.1 7.22783 183 4.65625 183C2.08467 183 0 185.1 0 187.689C0 190.279 2.08467 192.379 4.65625 192.379Z" fill="#DB0B5B" fill-opacity="0.18"/>
<path d="M51.2188 192.379C53.7903 192.379 55.875 190.279 55.875 187.689C55.875 185.1 53.7903 183 51.2188 183C48.6472 183 46.5625 185.1 46.5625 187.689C46.5625 190.279 48.6472 192.379 51.2188 192.379Z" fill="#DB0B5B" fill-opacity="0.18"/>
<path d="M97.7812 192.379C100.353 192.379 102.438 190.279 102.438 187.689C102.438 185.1 100.353 183 97.7812 183C95.2097 183 93.125 185.1 93.125 187.689C93.125 190.279 95.2097 192.379 97.7812 192.379Z" fill="#DB0B5B" fill-opacity="0.18"/>
<path d="M144.344 192.379C146.915 192.379 149 190.279 149 187.689C149 185.1 146.915 183 144.344 183C141.772 183 139.688 185.1 139.688 187.689C139.688 190.279 141.772 192.379 144.344 192.379Z" fill="#DB0B5B" fill-opacity="0.18"/>
<path d="M4.65625 239.273C7.22783 239.273 9.3125 237.174 9.3125 234.584C9.3125 231.994 7.22783 229.894 4.65625 229.894C2.08467 229.894 0 231.994 0 234.584C0 237.174 2.08467 239.273 4.65625 239.273Z" fill="#DB0B5B" fill-opacity="0.18"/>
<path d="M51.2188 239.273C53.7903 239.273 55.875 237.174 55.875 234.584C55.875 231.994 53.7903 229.894 51.2188 229.894C48.6472 229.894 46.5625 231.994 46.5625 234.584C46.5625 237.174 48.6472 239.273 51.2188 239.273Z" fill="#DB0B5B" fill-opacity="0.18"/>
<path d="M97.7812 239.273C100.353 239.273 102.438 237.174 102.438 234.584C102.438 231.994 100.353 229.894 97.7812 229.894C95.2097 229.894 93.125 231.994 93.125 234.584C93.125 237.174 95.2097 239.273 97.7812 239.273Z" fill="#DB0B5B" fill-opacity="0.18"/>
<path d="M144.344 239.273C146.915 239.273 149 237.174 149 234.584C149 231.994 146.915 229.894 144.344 229.894C141.772 229.894 139.688 231.994 139.688 234.584C139.688 237.174 141.772 239.273 144.344 239.273Z" fill="#DB0B5B" fill-opacity="0.18"/>
<path d="M4.65625 286.168C7.22783 286.168 9.3125 284.068 9.3125 281.478C9.3125 278.888 7.22783 276.789 4.65625 276.789C2.08467 276.789 0 278.888 0 281.478C0 284.068 2.08467 286.168 4.65625 286.168Z" fill="#DB0B5B" fill-opacity="0.18"/>
<path d="M51.2188 286.168C53.7903 286.168 55.875 284.068 55.875 281.478C55.875 278.888 53.7903 276.789 51.2188 276.789C48.6472 276.789 46.5625 278.888 46.5625 281.478C46.5625 284.068 48.6472 286.168 51.2188 286.168Z" fill="#DB0B5B" fill-opacity="0.18"/>
<path d="M97.7812 286.168C100.353 286.168 102.438 284.068 102.438 281.478C102.438 278.888 100.353 276.789 97.7812 276.789C95.2097 276.789 93.125 278.888 93.125 281.478C93.125 284.068 95.2097 286.168 97.7812 286.168Z" fill="#DB0B5B" fill-opacity="0.18"/>
<path d="M144.344 286.168C146.915 286.168 149 284.068 149 281.478C149 278.888 146.915 276.789 144.344 276.789C141.772 276.789 139.688 278.888 139.688 281.478C139.688 284.068 141.772 286.168 144.344 286.168Z" fill="#DB0B5B" fill-opacity="0.18"/>
<path d="M4.65625 333.062C7.22783 333.062 9.3125 330.963 9.3125 328.373C9.3125 325.783 7.22783 323.683 4.65625 323.683C2.08467 323.683 0 325.783 0 328.373C0 330.963 2.08467 333.062 4.65625 333.062Z" fill="#DB0B5B" fill-opacity="0.18"/>
<path d="M51.2188 333.062C53.7903 333.062 55.875 330.963 55.875 328.373C55.875 325.783 53.7903 323.683 51.2188 323.683C48.6472 323.683 46.5625 325.783 46.5625 328.373C46.5625 330.963 48.6472 333.062 51.2188 333.062Z" fill="#DB0B5B" fill-opacity="0.18"/>
<path d="M97.7812 333.062C100.353 333.062 102.438 330.963 102.438 328.373C102.438 325.783 100.353 323.683 97.7812 323.683C95.2097 323.683 93.125 325.783 93.125 328.373C93.125 330.963 95.2097 333.062 97.7812 333.062Z" fill="#DB0B5B" fill-opacity="0.18"/>
<path d="M144.344 333.062C146.915 333.062 149 330.963 149 328.373C149 325.783 146.915 323.683 144.344 323.683C141.772 323.683 139.688 325.783 139.688 328.373C139.688 330.963 141.772 333.062 144.344 333.062Z" fill="#DB0B5B" fill-opacity="0.18"/>
</svg>
