<svg width="77" height="36" viewBox="0 0 77 36" fill="none" xmlns="http://www.w3.org/2000/svg">
<path d="M20.3834 29.7461C20.0156 29.4333 19.7136 29.0261 19.5003 28.5553C19.287 28.0846 19.1682 27.5629 19.1528 27.03H21.5711C21.5769 27.2561 21.6275 27.4776 21.7189 27.6767C21.8102 27.8759 21.9398 28.0474 22.0973 28.1776C22.4626 28.4629 22.8953 28.6055 23.3336 28.585C23.8356 28.585 24.2242 28.4713 24.4994 28.2441C24.6341 28.135 24.7428 27.9872 24.8153 27.8149C24.8877 27.6426 24.9215 27.4515 24.9134 27.2595C24.9134 26.8644 24.8036 26.5805 24.5861 26.3958C24.3275 26.1957 24.0366 26.0603 23.7315 25.9979L22.0765 25.5294C21.1513 25.285 20.4724 24.8749 20.0399 24.2991C19.6079 23.728 19.3757 22.9863 19.3899 22.2227C19.3899 21.1055 19.7534 20.2096 20.4805 19.5351C21.2076 18.8607 22.1513 18.5243 23.3117 18.5261C24.4728 18.5261 25.4115 18.8625 26.1278 19.5351C26.4741 19.8501 26.7547 20.2537 26.9483 20.7152C27.1419 21.1766 27.2434 21.6838 27.245 22.1982H24.8279C24.8352 21.9891 24.8005 21.7809 24.7266 21.5905C24.6526 21.4001 24.5415 21.2329 24.4023 21.1023C24.1154 20.8307 23.7392 20.6949 23.2735 20.6949C22.8518 20.6949 22.5152 20.8022 22.2639 21.0167C22.1412 21.1204 22.0426 21.2585 21.9769 21.4183C21.9113 21.5782 21.8807 21.7548 21.888 21.932C21.888 22.3268 21.9863 22.602 22.1829 22.7577C22.4498 22.9473 22.7424 23.0819 23.048 23.1556L24.94 23.6608C25.792 23.9052 26.4242 24.3194 26.8367 24.9034C27.2503 25.4942 27.4695 26.2397 27.4543 27.0042C27.4543 28.1395 27.0835 29.0481 26.3417 29.7298C25.6 30.4115 24.6066 30.7537 23.3614 30.7564C22.1386 30.7564 21.1459 30.4197 20.3834 29.7461Z" fill="white"/>
<path d="M43.6989 19.6762C44.3496 20.4421 44.6754 21.4896 44.6761 22.8187V30.4181H42.237V23.5126C42.237 22.6887 42.0705 22.0704 41.7374 21.6575C41.4044 21.2447 40.9618 21.0387 40.4098 21.0396C39.7652 21.0396 39.2621 21.2836 38.9005 21.7716C38.5389 22.2596 38.3577 22.882 38.3569 23.6389V30.4181H35.9398V23.5126C35.9398 22.7385 35.7713 22.1329 35.4344 21.6956C35.0975 21.2583 34.6349 21.0396 34.0466 21.0396C33.7736 21.0273 33.5017 21.0879 33.2515 21.2168C33.0013 21.3457 32.7793 21.5396 32.6021 21.7838C32.2331 22.3029 32.0397 22.9632 32.0585 23.6389V30.4181H29.5986V18.894H31.8446L31.9741 20.1311C32.2786 19.6231 32.6919 19.2183 33.1723 18.9578C33.677 18.6714 34.2309 18.5246 34.7914 18.5287C35.4656 18.5155 36.1303 18.7158 36.7158 19.1085C37.2576 19.4699 37.685 20.0279 37.9336 20.6988C38.2126 20.028 38.6555 19.4701 39.2058 19.0963C39.7917 18.7072 40.4562 18.5111 41.1291 18.5287C42.1908 18.5287 43.0474 18.9112 43.6989 19.6762Z" fill="white"/>
<path d="M54.9713 29.6715C54.09 30.3958 53.0407 30.7579 51.8233 30.7579C50.89 30.7806 49.9682 30.5126 49.1517 29.9811C48.3889 29.4735 47.7663 28.7194 47.358 27.8083C46.9206 26.8175 46.7023 25.7136 46.723 24.598C46.723 23.3785 46.9397 22.3124 47.373 21.3998C47.7875 20.5098 48.4083 19.7758 49.1633 19.2827C49.9582 18.7723 50.8526 18.5135 51.7585 18.5317C52.64 18.5113 53.5113 18.7568 54.289 19.2447C55.001 19.6941 55.5912 20.3694 55.9925 21.1934C56.4027 22.0611 56.6102 23.0408 56.5939 24.033C56.6014 24.5115 56.5653 24.9895 56.4863 25.4589H49.1367C49.1644 26.3335 49.4239 27.0383 49.915 27.5734C50.4061 28.1084 51.0422 28.3755 51.8233 28.3746C52.351 28.3915 52.8738 28.2514 53.3429 27.9672C53.7447 27.7259 54.0568 27.3193 54.2196 26.8251H56.6159C56.4058 27.9899 55.8154 29.0118 54.9713 29.6715ZM54.09 23.5129C54.0762 22.7062 53.8487 22.0689 53.4077 21.6008C52.9667 21.1327 52.3961 20.8996 51.696 20.9014C50.9806 20.9014 50.3896 21.1391 49.9231 21.6144C49.6916 21.8513 49.5058 22.1434 49.378 22.4712C49.2501 22.799 49.1833 23.1551 49.1818 23.5156L54.09 23.5129Z" fill="white"/>
<path d="M64.4282 18.894V21.3684C64.1634 21.3344 63.9656 21.3167 63.85 21.3167C62.9687 21.3167 62.2898 21.6051 61.8134 22.1818C61.3369 22.7585 61.0986 23.5733 61.0986 24.6262V30.4182H58.6353V18.894H60.8592L61.0744 20.5481C61.2061 19.9928 61.519 19.5209 61.9452 19.2349C62.4199 18.9208 62.9584 18.764 63.503 18.7813C63.8136 18.7881 64.1231 18.8258 64.4282 18.894Z" fill="white"/>
<path d="M74.4007 19.2923C75.1286 19.8059 75.7188 20.5494 76.1042 21.4379C76.5295 22.4244 76.7419 23.5184 76.723 24.6238C76.7405 25.7352 76.5282 26.8349 76.1042 27.8288C75.7223 28.7251 75.1315 29.4757 74.4007 29.9935C73.6416 30.5131 72.7753 30.7771 71.8968 30.7567C71.242 30.7673 70.5919 30.6256 69.984 30.3397C69.4474 30.0941 68.9763 29.6848 68.6193 29.1542V35.7148H66.1802V18.8944H68.2006L68.3833 20.5484C68.7487 19.9107 69.2537 19.4003 69.8452 19.0709C70.4938 18.7026 71.2065 18.5166 71.9269 18.5277C72.7958 18.5098 73.6519 18.7744 74.4007 19.2923ZM73.45 27.1688C73.955 26.5215 74.2076 25.6804 74.2076 24.6456C74.2076 23.5936 73.955 22.7457 73.45 22.102C72.945 21.4583 72.2804 21.1365 71.4562 21.1365C70.6328 21.1365 69.9647 21.4583 69.452 22.102C68.9392 22.7457 68.6833 23.6017 68.684 24.67C68.684 25.7229 68.9385 26.5645 69.4473 27.1946C69.9562 27.8247 70.6189 28.1416 71.4354 28.1452C72.2735 28.1443 72.945 27.8202 73.45 27.1728V27.1688Z" fill="white"/>
<path d="M18.2346 5.62094L16.0638 0.949364C15.9512 0.706886 15.7931 0.497653 15.6015 0.337495C15.4099 0.177336 15.1898 0.0704484 14.9578 0.0249183C14.7258 -0.0206119 14.4881 -0.00359151 14.2625 0.0746915C14.037 0.152975 13.8295 0.29047 13.6559 0.476773L3.55027 11.3165C3.48237 11.3892 3.43481 11.4844 3.41383 11.5895C3.39284 11.6946 3.39942 11.8047 3.4327 11.9053C3.46598 12.006 3.5244 12.0924 3.60028 12.1533C3.67617 12.2143 3.76597 12.2468 3.8579 12.2467H5.20409C7.67441 12.2467 9.08767 15.5548 7.6108 17.8798L0.121199 29.6633C-0.281269 30.2961 0.403389 31.0892 0.936543 30.6139L16.2083 16.8572C17.6322 15.5762 18.619 13.7395 18.9906 11.6789C19.3622 9.61837 19.094 7.46969 18.2346 5.62094Z" fill="white"/>
</svg>
