<svg width="107" height="107" viewBox="0 0 107 107" fill="none" xmlns="http://www.w3.org/2000/svg">
<g filter="url(#filter0_d_1_41)">
<rect x="13" y="13" width="81" height="81" rx="25" fill="#FCCD00"/>
<rect x="11.75" y="11.75" width="83.5" height="83.5" rx="26.25" stroke="white" stroke-width="2.5"/>
</g>
<path d="M52.1041 35.3869C52.1041 35.1589 51.9088 34.9791 51.6821 35.002C42.3129 35.9481 35 43.8587 35 53.4773C35 63.7333 43.3142 72.0475 53.5702 72.0475C58.7243 72.0475 63.3883 69.9469 66.7519 66.5576C66.9125 66.3957 66.8948 66.1312 66.7175 65.9878L52.6487 54.6175C52.3043 54.3392 52.1041 53.9201 52.1041 53.4773V35.3869Z" fill="#FBFBFB"/>
<path d="M68.5623 63.7087C68.7394 63.852 69.0015 63.8138 69.1262 63.6231C70.7078 61.2029 71.7401 58.3904 72.0456 55.3644C72.0685 55.1377 71.8887 54.9434 71.6607 54.9434H58.8223C58.4538 54.9434 58.29 55.4066 58.5766 55.6383L68.5623 63.7087Z" fill="#FBFBFB"/>
<path d="M71.6605 52.0113C71.8885 52.0113 72.0683 51.8162 72.0454 51.5894C71.1621 42.8409 64.2065 35.8853 55.458 35.002C55.2312 34.9791 55.0361 35.159 55.0361 35.3869V51.4249C55.0361 51.7488 55.2987 52.0113 55.6226 52.0113H71.6605Z" fill="#FBFBFB"/>
<defs>
<filter id="filter0_d_1_41" x="0.5" y="0.5" width="106" height="106" filterUnits="userSpaceOnUse" color-interpolation-filters="sRGB">
<feFlood flood-opacity="0" result="BackgroundImageFix"/>
<feColorMatrix in="SourceAlpha" type="matrix" values="0 0 0 0 0 0 0 0 0 0 0 0 0 0 0 0 0 0 127 0" result="hardAlpha"/>
<feMorphology radius="5" operator="dilate" in="SourceAlpha" result="effect1_dropShadow_1_41"/>
<feOffset/>
<feGaussianBlur stdDeviation="2.5"/>
<feColorMatrix type="matrix" values="0 0 0 0 0.988235 0 0 0 0 0.803921 0 0 0 0 0 0 0 0 0.3 0"/>
<feBlend mode="normal" in2="BackgroundImageFix" result="effect1_dropShadow_1_41"/>
<feBlend mode="normal" in="SourceGraphic" in2="effect1_dropShadow_1_41" result="shape"/>
</filter>
</defs>
</svg>
